# xmcd CD database file
#
# Track frame offsets:
#	180
#	22027
#	50093
#	85122
#	112030
#	143255
#	162634
#	183743
#	218883
#	251850
#	279992
#
# Disc length: 3863 seconds
#
# Revision: 0
# Processed by: cddbd v1.5.2PL0 Copyright (c) Steve Scherf et al.
# Submitted via: CDex 1.60beta1-cs1
#
DISCID=a30f150b
DTITLE=Elias Haslanger - Standards
DYEAR=1900
DGENRE=Jazz
TTITLE0=I'll remember April
TTITLE1=Alone Together
TTITLE2=Sonnymoon for Two
TTITLE3=Dewey Square
TTITLE4=Portrait of Jennie
TTITLE5=You say You care
TTITLE6=Yardbird Suite
TTITLE7=All the Things you are
TTITLE8=When I Fall in Love
TTITLE9=Now's the Time
TTITLE10=Lament
EXTD=
EXTT0=
EXTT1=
EXTT2=
EXTT3=
EXTT4=
EXTT5=
EXTT6=
EXTT7=
EXTT8=
EXTT9=
EXTT10=
PLAYORDER=
